<svg width="23" height="24" viewBox="0 0 23 24" fill="none" xmlns="http://www.w3.org/2000/svg">
<path d="M4.46991 0.575885C5.01379 -0.0537317 5.98204 -0.151921 6.79583 0.207293C7.29771 0.428829 7.68288 0.791952 7.91384 1.20896C8.41834 1.10267 8.96883 1.16535 9.46869 1.38599C9.96855 1.60663 10.3858 1.97114 10.6472 2.41552C11.1278 2.2995 11.6596 2.35329 12.1407 2.56659C12.9545 2.9258 13.5344 3.70737 13.4357 4.53349C13.3416 5.32243 13.1136 6.56044 12.5531 7.83026C12.24 8.53935 11.7251 9.14586 11.0551 9.59462C10.3851 10.0434 9.58136 10.3202 8.71695 10.3997C8.2378 10.4452 7.92553 10.6384 7.82094 10.8754L7.60853 11.3566C7.59637 11.3841 7.58647 11.4117 7.5788 11.4393C7.49398 11.7619 7.17436 12.958 6.82516 14.1905C6.48278 15.3998 6.09198 16.7111 5.86723 17.2202C5.58272 17.8648 5.01113 18.3511 4.27819 18.5721C3.54525 18.7932 2.71101 18.7309 1.959 18.3989C1.20698 18.067 0.598783 17.4926 0.268207 16.8021C-0.0623696 16.1116 -0.0882485 15.3616 0.196264 14.717C0.421542 14.2066 1.12602 13.0367 1.78934 11.9676C2.46462 10.8791 3.13301 9.83692 3.31423 9.55685L3.3553 9.47915L3.56771 8.99795C3.6723 8.761 3.60462 8.40009 3.31535 8.01542C2.79167 7.3231 2.45454 6.54274 2.33464 5.74531C2.21475 4.94789 2.31588 4.15872 2.62885 3.4496C3.18937 2.17978 3.95044 1.17707 4.46991 0.575885ZM9.44938 7.18621C9.37825 7.34735 9.23535 7.46892 9.05212 7.52418C8.86888 7.57944 8.66032 7.56387 8.47232 7.48088C8.28431 7.39789 8.13227 7.25429 8.04962 7.08167C7.96698 6.90905 7.96051 6.72154 8.03164 6.56041L9.37258 3.52255C9.44371 3.36142 9.43724 3.17391 9.35459 3.00129C9.27195 2.82867 9.1199 2.68507 8.9319 2.60208C8.74389 2.51909 8.53533 2.50352 8.3521 2.55878C8.16886 2.61404 8.02596 2.73561 7.95484 2.89675L6.61389 5.9346C6.54276 6.09573 6.39987 6.21731 6.21663 6.27257C6.0334 6.32783 5.82484 6.31225 5.63683 6.22926C5.44883 6.14628 5.29678 6.00268 5.21414 5.83005C5.13149 5.65743 5.12502 5.46993 5.19615 5.30879L6.59878 2.1312C6.65354 2.00712 6.64856 1.86274 6.58493 1.72982C6.52129 1.5969 6.40421 1.48633 6.25945 1.42243C6.02411 1.31855 5.80938 1.36751 5.70463 1.48969C5.02517 2.27269 4.46812 3.14142 4.0466 4.07541C3.82284 4.58214 3.75054 5.14612 3.83628 5.71599C3.92202 6.28587 4.16308 6.84353 4.5375 7.3382C5.00703 7.95924 5.33517 8.83149 4.98545 9.62376L4.77305 10.105C4.73729 10.186 4.69539 10.2643 4.64734 10.3398C4.46719 10.6175 3.80344 11.653 3.1328 12.7348C2.45073 13.8348 1.79852 14.9248 1.61401 15.3428C1.47175 15.6651 1.48469 16.0401 1.64998 16.3853C1.81527 16.7306 2.11936 17.0178 2.49537 17.1838C2.87138 17.3497 3.2885 17.3809 3.65497 17.2704C4.02144 17.1598 4.30724 16.9167 4.44949 16.5944C4.63401 16.1764 5.00125 14.9607 5.35352 13.7136C5.70038 12.4903 6.0182 11.3021 6.10248 10.9807C6.12696 10.8961 6.15625 10.8131 6.19025 10.732L6.40266 10.2508C6.75238 9.45851 7.61797 9.11319 8.39323 9.04161C9.01128 8.9849 9.58596 8.78708 10.0649 8.4662C10.5439 8.14531 10.9118 7.71155 11.1353 7.20445C11.6352 6.07194 11.8433 4.95581 11.9285 4.23698C11.9477 4.07847 11.8383 3.88499 11.6043 3.78173C11.4596 3.71783 11.299 3.70583 11.1579 3.74839C11.0168 3.79094 10.9068 3.88455 10.852 4.00862L9.44938 7.18621ZM13.4344 9.67121C14.0746 8.22097 15.3607 7.12683 17.0098 6.62948C18.6589 6.13214 20.5359 6.27233 22.228 7.01921C22.416 7.1022 22.568 7.2458 22.6507 7.41842C22.7333 7.59105 22.7398 7.77855 22.6686 7.93969L19.4649 15.1977L19.3969 15.4247C19.1093 16.3814 18.8171 17.3365 18.52 18.2899C18.0207 19.8931 17.4484 21.6847 17.2092 22.2267C16.9247 22.8713 16.3531 23.3575 15.6201 23.5786C14.8872 23.7996 14.053 23.7373 13.3009 23.4054C12.5489 23.0734 11.9407 22.499 11.6101 21.8085C11.2796 21.118 11.2537 20.368 11.5382 19.7235C11.7774 19.1815 12.7155 17.5513 13.5636 16.1021C13.9946 15.3675 14.4111 14.6657 14.7202 14.1458L14.851 13.9263L13.5112 13.3349C13.1352 13.1689 12.8311 12.8817 12.6658 12.5364C12.5005 12.1912 12.4876 11.8162 12.6299 11.4939L13.4344 9.67121ZM16.5822 14.0414L16.4441 14.2738C15.9341 15.129 15.4272 15.9859 14.9231 16.8445C14.0527 18.3289 13.1608 19.8851 12.9559 20.3493C12.8137 20.6716 12.8266 21.0466 12.9919 21.3918C13.1572 21.7371 13.4613 22.0243 13.8373 22.1902C14.2133 22.3562 14.6304 22.3874 14.9969 22.2768C15.3634 22.1663 15.6492 21.9232 15.7914 21.6009C15.9969 21.1355 16.5451 19.4291 17.0554 17.7857C17.3508 16.835 17.6423 15.883 17.9299 14.9296L18.0079 14.6722L18.0326 14.6047L20.9639 7.96398C19.7182 7.58871 18.4147 7.61801 17.2921 8.04651C16.1696 8.47501 15.3034 9.27399 14.8522 10.297L14.0476 12.1197L16.1742 13.0584C16.2736 13.1023 16.364 13.1637 16.4394 13.2385C16.5149 13.3132 16.5738 13.3998 16.6123 13.4925C16.6507 13.5852 16.6679 13.682 16.6628 13.7765C16.6576 13.8711 16.6301 13.9614 16.5822 14.0414Z" fill="#2168FF"/>
</svg>
