<svg width="28" height="21" viewBox="0 0 28 21" fill="none" xmlns="http://www.w3.org/2000/svg">
<path d="M23.2045 0.0280485C23.0683 -0.00826296 22.9251 -0.00933635 22.7884 0.0249278C22.6517 0.0591924 22.526 0.127667 22.4231 0.223907C18.7999 3.61221 15.4578 3.56777 11.9255 3.52295C8.21991 3.47585 4.37931 3.43102 0.267921 7.27051C0.152691 7.37662 0.0698288 7.51315 0.0289038 7.66432C-0.0120212 7.81549 -0.00933993 7.97514 0.0366381 8.12483L3.68014 20.0238C3.72136 20.1585 3.79618 20.2804 3.89757 20.3782C3.99895 20.476 4.12356 20.5464 4.25967 20.5828C4.39579 20.6191 4.53892 20.6203 4.67561 20.5861C4.81231 20.5519 4.93806 20.4835 5.04103 20.3873C8.66416 16.999 12.0063 17.0435 15.5436 17.0868C17.6401 17.1122 19.776 17.1386 21.9756 16.4651C23.6719 15.9457 25.409 15.01 27.1972 13.3404C27.3107 13.2344 27.3923 13.0986 27.4325 12.9485C27.4727 12.7985 27.47 12.6402 27.4247 12.4916L23.7812 0.592631C23.7411 0.457244 23.667 0.334341 23.5661 0.235547C23.4652 0.136753 23.3407 0.0653354 23.2045 0.0280485ZM25.6859 12.4717C22.2081 15.5084 18.9771 15.4689 15.5653 15.4274C13.4687 15.402 11.3328 15.3756 9.13324 16.0491C7.5902 16.5298 6.1534 17.3013 4.90038 18.3219L1.78336 8.14234C5.2612 5.10563 8.49218 5.14505 11.904 5.1866C15.3159 5.22814 18.8291 5.27447 22.5695 2.29409L25.6859 12.4717ZM12.7605 7.1327C12.1323 7.32505 11.5752 7.6993 11.1597 8.2081C10.7442 8.7169 10.4889 9.33741 10.4262 9.99116C10.3634 10.6449 10.496 11.3025 10.8071 11.8809C11.1183 12.4592 11.594 12.9323 12.1741 13.2403C12.7543 13.5483 13.4129 13.6774 14.0665 13.6113C14.7201 13.5451 15.3395 13.2867 15.8463 12.8687C16.3531 12.4506 16.7246 11.8918 16.9137 11.2628C17.1028 10.6338 17.1012 9.96297 16.9089 9.33503C16.6511 8.49299 16.0986 7.88421 15.3207 7.47119C14.5427 7.05817 13.6029 6.87475 12.7605 7.1327ZM14.2187 11.8951C13.9046 11.9912 13.5691 11.9922 13.2545 11.8977C12.9399 11.8032 12.6605 11.6176 12.4514 11.3644C12.2424 11.1111 12.1132 10.8016 12.0802 10.4749C12.0472 10.1482 12.1119 9.81898 12.266 9.52896C12.4201 9.23895 12.6568 9.00111 12.9461 8.84552C13.2354 8.68994 13.5643 8.6236 13.8913 8.6549C14.2183 8.68619 14.5286 8.81371 14.7831 9.02133C15.0375 9.22895 15.2246 9.50735 15.3208 9.82132C15.4497 10.2423 15.406 10.6973 15.1993 11.0862C14.9927 11.4752 14.6399 11.7661 14.2187 11.8951ZM5.61396 9.32099L7.07222 14.0834C7.13668 14.2939 7.11484 14.5214 7.0115 14.7158C6.90816 14.9103 6.7318 15.0557 6.5212 15.1202C6.3106 15.1847 6.08303 15.1629 5.88853 15.0597C5.69404 14.9564 5.54856 14.7801 5.4841 14.5696L4.02585 9.80728C3.96139 9.59677 3.98323 9.36926 4.08657 9.17481C4.1899 8.98036 4.36627 8.83489 4.57686 8.77041C4.78746 8.70592 5.01504 8.7277 5.20953 8.83095C5.40403 8.93421 5.54951 9.11048 5.61396 9.32099ZM21.8514 11.2942L20.3931 6.53186C20.3286 6.32135 20.3505 6.09385 20.4538 5.8994C20.5572 5.70494 20.7335 5.55947 20.9441 5.49499C21.1547 5.4305 21.3823 5.45228 21.5768 5.55554C21.7713 5.65879 21.9168 5.83506 21.9812 6.04557L23.4395 10.8079C23.5039 11.0184 23.4821 11.246 23.3788 11.4404C23.2754 11.6349 23.0991 11.7803 22.8885 11.8448C22.6779 11.9093 22.4503 11.8875 22.2558 11.7843C22.0613 11.681 21.9158 11.5047 21.8514 11.2942Z" fill="#2168FF"/>
</svg>
