<svg width="21" height="25" viewBox="0 0 21 25" fill="none" xmlns="http://www.w3.org/2000/svg">
<path d="M12.7928 20.3596C13.333 20.4943 13.7977 20.8381 14.0845 21.3154C14.3713 21.7926 14.4567 22.3643 14.322 22.9046C14.1873 23.4448 13.8435 23.9095 13.3663 24.1963C12.889 24.4831 12.3174 24.5685 11.7771 24.4338C11.2368 24.2992 10.7722 23.9554 10.4854 23.4781C10.1986 23.0008 10.1131 22.4292 10.2478 21.8889C10.5297 20.7583 11.6622 20.0778 12.7928 20.3596ZM0.558594 0L3.88927 0.83032L4.33887 3.10612L19.4033 6.8616C19.6734 6.92894 19.9058 7.10084 20.0492 7.33948C20.1926 7.57811 20.2353 7.86394 20.1679 8.13407C20.1248 8.30723 20.0307 8.46769 19.9188 8.61288L14.6295 14.2939C14.1283 14.8289 13.3494 15.0891 12.5855 14.8987L4.99721 13.0069L3.66662 14.4387L3.6056 14.5533C3.58876 14.6208 3.59944 14.6923 3.63529 14.7519C3.67114 14.8116 3.72922 14.8546 3.79676 14.8714L15.5916 17.8118L15.0838 19.8489L2.86112 16.8019C2.32085 16.6672 1.8562 16.3234 1.56941 15.8461C1.28262 15.3688 1.19716 14.7972 1.33185 14.2569C1.42072 13.9004 1.59619 13.5871 1.82007 13.34L3.82741 11.1899L2.08786 2.54495L0.0507529 2.03711L0.558594 0ZM2.6072 17.8204C3.14748 17.9551 3.61212 18.2989 3.89891 18.7762C4.18571 19.2534 4.27116 19.8251 4.13647 20.3654C4.00178 20.9056 3.65799 21.3703 3.18072 21.6571C2.70345 21.9439 2.13179 22.0293 1.59152 21.8946C1.05124 21.7599 0.586601 21.4162 0.299808 20.9389C0.013014 20.4616 -0.0724387 19.89 0.0622494 19.3497C0.344101 18.2191 1.4766 17.5386 2.6072 17.8204ZM13.5516 12.9758L17.6528 8.58893L4.77829 5.37937L5.91248 11.0714L13.5516 12.9758Z" fill="#2168FF"/>
</svg>
