<svg width="682" height="161" viewBox="0 0 682 161" fill="none" xmlns="http://www.w3.org/2000/svg">
<path d="M80.3809 15C98.192 15 112.631 29.4388 112.631 47.25C112.631 65.0612 98.192 79.5 80.3809 79.5H67.5V15H80.3809Z" fill="#2C48FF"/>
<path d="M80.3809 15C98.192 15 112.631 29.4388 112.631 47.25C112.631 65.0612 98.192 79.5 80.3809 79.5H67.5V15H80.3809Z" stroke="white" stroke-width="2"/>
<path d="M132 94.3809C132 112.192 117.561 126.631 99.75 126.631C81.9388 126.631 67.5 112.192 67.5 94.3809V81.5H132V94.3809Z" fill="#2C48FF"/>
<path d="M132 94.3809C132 112.192 117.561 126.631 99.75 126.631C81.9388 126.631 67.5 112.192 67.5 94.3809V81.5H132V94.3809Z" stroke="white" stroke-width="2"/>
<path d="M1 60.3713C1.00007 46.4628 12.2751 35.1879 26.1836 35.1877H33.25C51.0612 35.1877 65.5 49.6265 65.5 67.4377V80.3186H20.9473C9.93076 80.3186 1 71.3878 1 60.3713Z" fill="#2C48FF"/>
<path d="M1 60.3713C1.00007 46.4628 12.2751 35.1879 26.1836 35.1877H33.25C51.0612 35.1877 65.5 49.6265 65.5 67.4377V80.3186H20.9473C9.93076 80.3186 1 71.3878 1 60.3713Z" stroke="white" stroke-width="2"/>
<path d="M52.6191 146C34.808 146 20.3691 131.561 20.3691 113.75C20.3691 95.9388 34.808 81.5 52.6191 81.5H65.5V146H52.6191Z" fill="#2C48FF"/>
<path d="M52.6191 146C34.808 146 20.3691 131.561 20.3691 113.75C20.3691 95.9388 34.808 81.5 52.6191 81.5H65.5V146H52.6191Z" stroke="white" stroke-width="2"/>
<path d="M191.448 133V37.64H210.648L246.36 85H237.4L272.088 37.64H291.288V133H271.448V59.528L279.384 61.32L242.648 108.68H240.088L204.632 61.32L211.288 59.528V133H191.448ZM328.422 134.536C323.387 134.536 319.035 133.725 315.366 132.104C311.697 130.483 308.881 128.179 306.918 125.192C304.955 122.12 303.974 118.493 303.974 114.312C303.974 110.387 304.87 106.931 306.662 103.944C308.454 100.872 311.185 98.312 314.854 96.264C318.609 94.216 323.259 92.7653 328.806 91.912L350.182 88.456V102.536L332.262 105.736C329.531 106.248 327.441 107.144 325.99 108.424C324.539 109.619 323.814 111.368 323.814 113.672C323.814 115.805 324.625 117.469 326.246 118.664C327.867 119.859 329.873 120.456 332.262 120.456C335.419 120.456 338.193 119.773 340.582 118.408C342.971 117.043 344.806 115.208 346.086 112.904C347.451 110.515 348.134 107.912 348.134 105.096V86.92C348.134 84.2747 347.067 82.056 344.934 80.264C342.886 78.472 340.07 77.576 336.486 77.576C333.073 77.576 330.043 78.5147 327.398 80.392C324.838 82.2693 322.961 84.744 321.766 87.816L306.406 80.52C307.771 76.5947 309.947 73.224 312.934 70.408C315.921 67.592 319.505 65.416 323.686 63.88C327.867 62.344 332.433 61.576 337.382 61.576C343.27 61.576 348.475 62.6427 352.998 64.776C357.521 66.9093 361.019 69.896 363.494 73.736C366.054 77.4907 367.334 81.8853 367.334 86.92V133H349.414V121.736L353.766 120.968C351.718 124.04 349.457 126.6 346.982 128.648C344.507 130.611 341.734 132.061 338.662 133C335.59 134.024 332.177 134.536 328.422 134.536ZM413.829 133.768C405.381 133.768 398.81 131.507 394.117 126.984C389.509 122.376 387.205 115.976 387.205 107.784V79.752H375.429V63.112H376.069C379.653 63.112 382.384 62.216 384.261 60.424C386.224 58.632 387.205 55.944 387.205 52.36V47.24H406.405V63.112H422.789V79.752H406.405V106.504C406.405 108.893 406.832 110.899 407.685 112.52C408.538 114.056 409.861 115.208 411.653 115.976C413.445 116.744 415.664 117.128 418.309 117.128C418.906 117.128 419.589 117.085 420.357 117C421.125 116.915 421.936 116.829 422.789 116.744V133C421.509 133.171 420.058 133.341 418.437 133.512C416.816 133.683 415.28 133.768 413.829 133.768ZM468.728 134.536C461.816 134.536 455.501 132.957 449.784 129.8C444.152 126.643 439.629 122.333 436.216 116.872C432.888 111.325 431.224 105.053 431.224 98.056C431.224 90.9733 432.888 84.7013 436.216 79.24C439.629 73.7787 444.152 69.4693 449.784 66.312C455.501 63.1547 461.816 61.576 468.728 61.576C475.64 61.576 481.912 63.1547 487.544 66.312C493.176 69.4693 497.656 73.7787 500.984 79.24C504.397 84.7013 506.104 90.9733 506.104 98.056C506.104 105.053 504.397 111.325 500.984 116.872C497.656 122.333 493.176 126.643 487.544 129.8C481.912 132.957 475.64 134.536 468.728 134.536ZM468.728 117.256C472.227 117.256 475.256 116.445 477.816 114.824C480.461 113.203 482.509 110.941 483.96 108.04C485.496 105.139 486.264 101.811 486.264 98.056C486.264 94.3013 485.496 91.016 483.96 88.2C482.509 85.2987 480.461 83.0373 477.816 81.416C475.256 79.7093 472.227 78.856 468.728 78.856C465.229 78.856 462.157 79.7093 459.512 81.416C456.867 83.0373 454.776 85.2987 453.24 88.2C451.789 91.016 451.064 94.3013 451.064 98.056C451.064 101.811 451.789 105.139 453.24 108.04C454.776 110.941 456.867 113.203 459.512 114.824C462.157 116.445 465.229 117.256 468.728 117.256ZM517.415 133V36.104H536.615V98.184L529.447 95.88L560.295 63.112H583.975L558.631 91.272L583.847 133H562.087L540.967 97.544L552.103 94.728L530.727 118.024L536.615 106.888V133H517.415ZM625.853 134.536C618.941 134.536 612.626 132.957 606.909 129.8C601.277 126.643 596.754 122.333 593.341 116.872C590.013 111.325 588.349 105.053 588.349 98.056C588.349 90.9733 590.013 84.7013 593.341 79.24C596.754 73.7787 601.277 69.4693 606.909 66.312C612.626 63.1547 618.941 61.576 625.853 61.576C632.765 61.576 639.037 63.1547 644.669 66.312C650.301 69.4693 654.781 73.7787 658.109 79.24C661.522 84.7013 663.229 90.9733 663.229 98.056C663.229 105.053 661.522 111.325 658.109 116.872C654.781 122.333 650.301 126.643 644.669 129.8C639.037 132.957 632.765 134.536 625.853 134.536ZM625.853 117.256C629.352 117.256 632.381 116.445 634.941 114.824C637.586 113.203 639.634 110.941 641.085 108.04C642.621 105.139 643.389 101.811 643.389 98.056C643.389 94.3013 642.621 91.016 641.085 88.2C639.634 85.2987 637.586 83.0373 634.941 81.416C632.381 79.7093 629.352 78.856 625.853 78.856C622.354 78.856 619.282 79.7093 616.637 81.416C613.992 83.0373 611.901 85.2987 610.365 88.2C608.914 91.016 608.189 94.3013 608.189 98.056C608.189 101.811 608.914 105.139 610.365 108.04C611.901 110.941 613.992 113.203 616.637 114.824C619.282 116.445 622.354 117.256 625.853 117.256Z" fill="#2C48FF"/>
</svg>
