<svg width="39" height="24" viewBox="0 0 39 24" fill="none" xmlns="http://www.w3.org/2000/svg">
<path fill-rule="evenodd" clip-rule="evenodd" d="M4.88016 22.4229C4.34404 22.959 3.61691 23.2602 2.85873 23.2602C2.10055 23.2602 1.37342 22.959 0.837303 22.4229C0.301187 21.8867 0 21.1596 0 20.4014C0 19.6432 0.301187 18.9161 0.837303 18.38L10.3602 8.86L10.3802 8.84C11.1582 8.07794 12.2039 7.65114 13.293 7.65114C14.3821 7.65114 15.4278 8.07794 16.2059 8.84L16.2259 8.86L21.0859 13.72L27.7916 6.62857L24.8202 3.65714C24.5209 3.35747 24.3171 2.97581 24.2345 2.56039C24.152 2.14496 24.1945 1.7144 24.3565 1.32308C24.5185 0.931752 24.7929 0.597222 25.1449 0.361736C25.497 0.126251 25.9109 0.000372535 26.3344 0H36.7716C37.3399 0 37.885 0.225764 38.2868 0.627628C38.6887 1.02949 38.9144 1.57454 38.9144 2.14286V12.5771C38.9141 13.0007 38.7882 13.4146 38.5527 13.7667C38.3172 14.1187 37.9827 14.3931 37.5914 14.5551C37.2 14.7171 36.7695 14.7596 36.3541 14.677C35.9386 14.5945 35.557 14.3907 35.2573 14.0914L31.8344 10.6686L24.1087 18.8429L24.0316 18.92C23.2535 19.6821 22.2078 20.1089 21.1187 20.1089C20.0296 20.1089 18.9839 19.6821 18.2059 18.92L18.1859 18.9L13.2916 14.0086L4.88016 22.4229Z" fill="white"/>
</svg>
