<svg width="155" height="153" viewBox="0 0 155 153" fill="none" xmlns="http://www.w3.org/2000/svg">
<rect width="155" height="153" rx="76.5" fill="white"/>
<path d="M78.9078 22H90.0741C104.846 22 116.821 33.9751 116.821 48.7472C116.821 63.5193 104.846 75.4945 90.0741 75.4945H78.9078V22Z" fill="#2C48FF"/>
<path d="M132.804 77.5055V88.6718C132.804 103.444 120.829 115.419 106.057 115.419C91.2851 115.419 79.3099 103.444 79.3099 88.6718V77.5055H132.804Z" fill="#2C48FF"/>
<path d="M39.8505 73.5888C30.5442 73.5888 23 66.0446 23 56.7383C23 45.1055 32.4303 35.6753 44.0631 35.6753H49.7472C64.5193 35.6753 76.4945 47.6504 76.4945 62.4225V73.5888H39.8505Z" fill="#2C48FF"/>
<path d="M77.0021 131H65.8358C51.0637 131 39.0886 119.025 39.0886 104.253C39.0886 89.4807 51.0637 77.5055 65.8358 77.5055H77.0021V131Z" fill="#2C48FF"/>
</svg>
